#N canvas 686 199 651 632 12;
#X obj 181 89 hsl 162 17 0 1000 0 0 empty empty empty -2 -10 0 12 #c6feff #000000 #000000 0 1;
#X floatatom 178 118 5 0 0 0 - - - 0;
#X obj 178 213 osc~;
#X obj 179 388 *~ 0;
#X floatatom 203 255 5 0 0 0 - - - 0;
#X obj 203 290 dbtorms;
#X floatatom 216 324 5 0 0 0 - - - 0;
#X obj 180 466 voutput~;
#X obj 62 214 osc~;
#X obj 116 213 osc~;
#X obj 62 167 * 2;
#X obj 116 166 * 5;
#X floatatom 107 260 4 0 0 0 - - - 0;
#X obj 62 294 *~;
#X obj 90 343 +~;
#X text 71 6 ROSHAN POUDEl;
#X text 217 7 ADDITIVE SYNTHESIS;
#X connect 0 0 1 0;
#X connect 1 0 2 0;
#X connect 1 0 11 0;
#X connect 1 0 10 0;
#X connect 2 0 14 0;
#X connect 3 0 7 0;
#X connect 3 0 7 1;
#X connect 4 0 5 0;
#X connect 5 0 3 1;
#X connect 5 0 6 0;
#X connect 8 0 13 0;
#X connect 9 0 13 0;
#X connect 10 0 8 0;
#X connect 11 0 9 0;
#X connect 12 0 13 1;
#X connect 13 0 14 0;
#X connect 14 0 3 0;
