#N canvas 419 83 840 652 12;
#X obj 154 62 hsl 162 17 0 1000 0 0 empty empty empty -2 -10 0 12 #c6feff #000000 #000000 0 1;
#X floatatom 151 91 5 0 0 0 - - - 0;
#X obj 151 186 osc~;
#X obj 150 364 *~ 0;
#X floatatom 176 228 5 0 0 0 - - - 0;
#X obj 176 263 dbtorms;
#X floatatom 189 297 5 0 0 0 - - - 0;
#X obj 148 472 voutput~;
#X obj 35 187 osc~;
#X obj 89 186 osc~;
#X obj 35 140 * 2;
#X obj 89 139 * 5;
#X floatatom 80 233 4 0 0 0 - - - 0;
#X obj 35 267 *~;
#X obj 98 311 +~;
#X text 71 6 ROSHAN POUDEl;
#X text 217 7 ENVELOPES;
#X text 64 560 level \, attack time \, decay time \, sustain level \, release time. A \, D \, and R are in msec and S is in percent.;
#X obj 270 389 line;
#X obj 272 193 bng 19 250 50 0 empty empty empty 0 -10 0 12 #fcfcfc #000000 #000000;
#X floatatom 270 425 5 0 0 0 - - - 0;
#X obj 424 286 bng 19 250 50 0 empty empty empty 0 -10 0 12 #fcfcfc #000000 #000000;
#X text 269 154 Attack;
#X text 422 213 Sustain;
#X text 605 267 Release;
#X obj 602 307 delay 4500;
#X text 687 302 Sustain for 3 seconds until executing the rel ease stage;
#X obj 602 341 bng 19 250 50 0 empty empty empty 0 -10 0 12 #fcfcfc #000000 #000000;
#X text 674 386 Release to base(0) in 2s;
#X msg 602 390 0 2000;
#X msg 413 334 0.5 1500;
#X text 296 263 line obj ramps the value from 0 to 1 in 2000ms, f 8;
#X text 504 235 Wait for attack to finish, f 8;
#X text 482 313 Sustain at level = 0.5 (half) for Decay Time of 1500ms, f 12;
#X msg 272 234 1 1000;
#X obj 424 256 delay 1000;
#X connect 0 0 1 0;
#X connect 1 0 2 0;
#X connect 1 0 11 0;
#X connect 1 0 10 0;
#X connect 2 0 14 0;
#X connect 3 0 7 0;
#X connect 3 0 7 1;
#X connect 4 0 5 0;
#X connect 5 0 3 1;
#X connect 5 0 6 0;
#X connect 8 0 13 0;
#X connect 9 0 13 0;
#X connect 10 0 8 0;
#X connect 11 0 9 0;
#X connect 12 0 13 1;
#X connect 13 0 14 0;
#X connect 14 0 3 0;
#X connect 18 0 20 0;
#X connect 19 0 34 0;
#X connect 19 0 35 0;
#X connect 20 0 3 1;
#X connect 21 0 30 0;
#X connect 21 0 25 0;
#X connect 25 0 27 0;
#X connect 27 0 29 0;
#X connect 29 0 18 0;
#X connect 30 0 18 0;
#X connect 34 0 18 0;
#X connect 35 0 21 0;
