#N canvas 724 161 450 375 12;
#X floatatom 71 59 5 0 0 0 - - - 0;
#X obj 37 108 * 400;
#X obj 164 110 * 600;
#X obj 37 151 osc~;
#X obj 88 138 print a;
#X obj 209 140 print b;
#X obj 164 154 osc~;
#X obj 37 205 *~ 0.5;
#X obj 36 263 voutput~;
#X text 94 2 ROSHAN POUDEL - An Interval Part 4 Q1;
#X connect 0 0 1 0;
#X connect 0 0 2 0;
#X connect 1 0 4 0;
#X connect 1 0 3 0;
#X connect 2 0 6 0;
#X connect 2 0 5 0;
#X connect 3 0 7 0;
#X connect 6 0 7 0;
#X connect 7 0 8 0;
#X connect 7 0 8 1;
