#N canvas 668 212 450 436 12;
#X obj 82 82 bng 19 250 50 0 empty empty empty 0 -10 0 12 #fcfcfc #000000 #000000;
#X obj 122 83 bng 19 250 50 0 empty empty empty 0 -10 0 12 #fcfcfc #000000 #000000;
#X text 99 18 ROSHAN POUDEL - TWO FREQUENCY Part IV Qno.1;
#X obj 41 195 osc~;
#X obj 41 273 *~;
#X msg 122 230 1;
#X msg 81 230 0.5;
#X msg 42 150 440;
#X msg 91 150 500;
#X obj 40 324 voutput~;
#X connect 0 0 6 0;
#X connect 0 0 7 0;
#X connect 1 0 5 0;
#X connect 1 0 8 0;
#X connect 3 0 4 0;
#X connect 4 0 9 0;
#X connect 4 0 9 1;
#X connect 5 0 4 1;
#X connect 6 0 4 1;
#X connect 7 0 3 0;
#X connect 8 0 3 0;
